<svg xmlns="http://www.w3.org/2000/svg" aria-hidden="true" style="position:absolute;width:0;height:0;overflow:hidden"><defs><symbol id="icon-Group-3" viewBox="0 0 72 32"><path fill="#f5f4fa" d="M1.067 0h69.867c.589 0 1.067.478 1.067 1.067v29.867c0 .589-.478 1.067-1.067 1.067H1.067A1.067 1.067 0 0 1 0 30.934V1.067C0 .478.478 0 1.067 0z" style="fill:var(--color1, #f5f4fa)"/><path fill="#2196f3" d="M35.373 15.396h.622v2.799h-.622v-2.799zM37.861 16.64h.622v1.555h-.622V16.64zM32.886 17.573h.622v.622h-.622v-.622zM31.02 17.262h.622v.933h-.622v-.933z" style="fill:var(--color2, #2196f3)"/><path fill="#212121" d="M27.599 23.17h14.926a.933.933 0 0 0 .933-.933v-1.244a.933.933 0 0 0-.933-.933h-.311v-7.754l1.766-1.673a.938.938 0 1 0-.437-.445l-1.331 1.262v-.717a.933.933 0 0 0-.933-.933H28.841a.933.933 0 0 0-.933.933v9.328h-.311a.933.933 0 0 0-.933.933v1.244c0 .515.418.933.933.933zM44.391 9.488a.31.31 0 1 1 0 .621.31.31 0 0 1 0-.621zm-15.859 1.244a.31.31 0 0 1 .311-.311h12.438a.31.31 0 0 1 .311.311v1.306l-.622.591v-1.275a.31.31 0 0 0-.311-.311H29.465a.31.31 0 0 0-.311.311v7.774a.31.31 0 0 0 .311.311h11.194a.311.311 0 0 0 .311-.311v-5.643l.622-.589v7.165h-13.06v-9.328zm2.799 4.042a.933.933 0 1 0 .646 1.603l1.081.542a.31.31 0 0 0 .371-.072l2.298-2.585 2.259 1.692a.31.31 0 0 0 .4-.023l1.963-1.859v4.743H29.777v-7.152h10.572v1.552l-2.2 2.083-2.278-1.707a.311.311 0 0 0-.419.042l-2.329 2.621-.871-.435c.006-.037.01-.075.012-.113a.933.933 0 0 0-.933-.933zm.311.933a.31.31 0 1 1-.621 0 .31.31 0 0 1 .621 0zm1.865 4.975h3.11v.311a.31.31 0 0 1-.311.311h-2.488a.31.31 0 0 1-.311-.311v-.311zm-6.218.311a.31.31 0 0 1 .311-.311h5.286v.311c0 .515.418.933.933.933h2.488a.933.933 0 0 0 .933-.933v-.311h5.286a.31.31 0 0 1 .311.311v1.244a.31.31 0 0 1-.311.311H27.6a.31.31 0 0 1-.311-.311v-1.244z" style="fill:var(--color3, #212121)"/></symbol></defs></svg>